<svg id="Groupe_8366" data-name="Groupe 8366" xmlns="http://www.w3.org/2000/svg" width="18" height="18" viewBox="0 0 18 18">
  <path id="Tracé_6910" data-name="Tracé 6910" d="M100.052,520.13c-.052.756-.052,1.7-.052,2.97,0,2.516,0,3.774.411,4.766a5.4,5.4,0,0,0,2.922,2.922c.993.411,2.25.411,4.766.411h1.8c.809,0,1.488,0,2.07-.014v-.01h0c0-.819,0-1.466.036-1.989a4.354,4.354,0,0,1,.286-1.407,4.232,4.232,0,0,1,2.289-2.289,4.353,4.353,0,0,1,1.407-.286c.523-.036,1.17-.036,1.989-.036h.01c.013-.582.013-1.261.013-2.07,0-1.266,0-2.214-.052-2.97Zm.182-1.26h17.532a3.946,3.946,0,0,0-.177-.536,5.4,5.4,0,0,0-2.922-2.922c-.993-.411-2.25-.411-4.766-.411h-1.8c-2.516,0-3.774,0-4.766.411a5.4,5.4,0,0,0-2.922,2.922A3.947,3.947,0,0,0,100.234,518.87Zm14.432,11.919a5.02,5.02,0,0,1-1.436.328c0-.8,0-1.384.032-1.844a3.171,3.171,0,0,1,.193-1.01,2.974,2.974,0,0,1,1.607-1.607,3.173,3.173,0,0,1,1.01-.194c.46-.031,1.039-.032,1.844-.032a5.014,5.014,0,0,1-.328,1.437A5.4,5.4,0,0,1,114.666,530.789ZM103.6,522.47a.63.63,0,0,0,0,1.26h.45a.63.63,0,0,0,0-1.26Zm4.32.63a.63.63,0,0,1,.63-.63H109a.63.63,0,0,1,0,1.26h-.45A.63.63,0,0,1,107.92,523.1Zm5.58-.63a.63.63,0,0,0,0,1.26h.45a.63.63,0,0,0,0-1.26Zm-10.53,5.13a.63.63,0,0,1,.63-.63h.45a.63.63,0,1,1,0,1.26h-.45A.629.629,0,0,1,102.97,527.6Zm5.58-.63a.63.63,0,1,0,0,1.26H109a.63.63,0,1,0,0-1.26Z" transform="translate(-100 -513.2)" fill="#c7c7d2" fill-rule="evenodd"/>
  <path id="Tracé_6911" data-name="Tracé 6911" d="M114.63,513a.63.63,0,0,1,.63.63v2.34a.63.63,0,0,1-1.26,0v-2.34A.63.63,0,0,1,114.63,513Z" transform="translate(-101.4 -513)" fill="#c7c7d2" fill-rule="evenodd"/>
  <path id="Tracé_6912" data-name="Tracé 6912" d="M105.63,513a.629.629,0,0,1,.63.63v2.34a.63.63,0,0,1-1.26,0v-2.34A.629.629,0,0,1,105.63,513Z" transform="translate(-100.499 -513)" fill="#c7c7d2" fill-rule="evenodd"/>
</svg>
